<svg width="104" height="103" viewBox="0 0 104 103" fill="none" xmlns="http://www.w3.org/2000/svg">
<g clip-path="url(#clip0)">
<path d="M44.0437 85.8806C43.7596 85.9752 43.5701 86.1644 43.286 86.2589C40.7286 87.4885 38.1712 88.3398 35.3297 88.9072C32.5829 89.4747 29.7413 89.7585 26.8998 89.7585C23.8689 89.7585 21.122 89.6639 18.7541 89.5693C16.3862 89.3802 14.3971 89.2856 12.9763 89.191V16.8356C13.7341 16.8356 14.776 16.741 15.9126 16.741C17.1439 16.741 18.3752 16.6465 19.7013 16.6465C21.0273 16.6465 22.3534 16.5519 23.6794 16.5519C25.0055 16.5519 26.1421 16.5519 27.2787 16.5519C31.8251 16.5519 36.1821 17.214 40.255 18.4435C41.5811 18.8219 42.8124 19.2948 44.0437 19.8623C44.0437 17.9706 44.0437 16.079 43.949 14.1873C43.8543 12.2011 43.8543 10.2149 43.7596 8.32323C43.0018 8.13407 42.2441 7.9449 41.5811 7.75574C39.2131 7.18825 36.9399 6.80992 34.7614 6.62075C32.5829 6.43159 30.6885 6.33701 28.9836 6.33701C27.5628 6.33701 25.9526 6.33701 24.2477 6.33701C22.5428 6.33701 20.7432 6.33701 18.8488 6.43159C17.0492 6.43159 15.1548 6.52617 13.3552 6.52617C11.3661 6.62075 9.6612 6.62075 7.95628 6.62075C6.25137 6.71533 4.73588 6.71533 3.40984 6.80992C1.98907 6.9045 0.852459 6.9045 0 6.99908C0.284153 8.22865 0.473588 9.93113 0.568306 11.9174C0.663024 13.9036 0.757741 16.2681 0.852459 18.8219C0.947177 21.3756 0.947177 24.1185 0.947177 27.0505V70.6529C0.947177 73.7741 0.947177 76.8007 0.947177 79.7328C0.947177 82.6648 0.852459 85.4077 0.852459 87.8668C0.852459 90.326 0.663024 92.596 0.568306 94.5822C0.473588 96.5684 0.284153 98.1763 0 99.5005C3.69399 99.595 7.29326 99.6896 10.7031 99.7842C12.2186 99.7842 13.7341 99.8788 15.2495 99.8788C16.8597 99.8788 18.3752 99.9734 19.796 99.9734C21.3115 99.9734 22.6375 99.9734 24.0583 100.068C25.3843 100.068 26.5209 100.068 27.5628 100.068C30.6885 100.068 33.9089 99.7842 37.4135 99.2167C39.7814 98.8384 42.1494 98.1763 44.5173 97.4196C44.3279 97.3251 44.2332 97.3251 44.0437 97.2305V85.8806Z" fill="#F7BFBD"/>
<path d="M61.0928 34.1442C61.9453 36.5087 62.703 39.157 63.0819 42.1837C63.1766 42.0891 63.2713 41.8999 63.4607 41.8053C65.1657 40.1974 67.06 38.6841 69.0491 37.4545C70.6593 36.4141 72.4589 35.6575 74.3533 34.9954C73.5008 31.685 72.4589 28.5638 71.1329 25.9155C69.6174 22.7943 67.8178 20.0514 65.734 17.7814C63.6502 15.5115 61.4717 13.5253 59.1037 11.9174C59.009 11.8228 58.8196 11.7282 58.7249 11.6336V28.753C59.5773 30.55 60.3351 32.2525 61.0928 34.1442Z" fill="#F7BFBD"/>
<path d="M102.39 54.4793C101.348 50.6015 99.8325 47.2911 97.8434 44.4536C95.8544 41.6162 93.5811 39.4408 90.929 37.9275C88.2769 36.4141 85.3407 35.5629 82.1203 35.5629C79.4682 35.5629 76.9108 35.9412 74.6376 36.6033C74.2587 36.6979 73.7851 36.8871 73.4063 36.9816C71.5119 37.6437 69.807 38.4949 68.1021 39.4408C66.113 40.6703 64.2187 42.0891 62.5137 43.7915C62.419 43.8861 62.2296 44.0753 62.1349 44.1699C60.5247 45.6832 59.0092 47.3857 57.6831 49.1827V30.8338V13.7144V0H44.991C45.2751 1.79706 45.4646 3.87787 45.5593 6.33701C45.5593 6.99908 45.654 7.66116 45.654 8.32323C45.7487 10.2149 45.8434 12.1065 45.8434 14.1873C45.8434 16.079 45.9381 17.9706 45.9381 19.8623C45.9381 20.7135 45.9381 21.5647 45.9381 22.3214V85.8806C48.2114 84.7456 50.2952 83.3269 52.1895 81.6244C54.2733 79.7328 56.0729 77.5574 57.6831 75.0037V64.3159C58.725 61.6676 60.0511 59.303 61.6613 57.1276C62.0401 56.5601 62.419 56.0872 62.7979 55.6143C64.0292 54.101 65.3553 52.6823 66.6813 51.5473C68.481 49.9394 70.3753 48.8044 72.3644 47.8586C73.2168 47.4803 74.164 47.1965 75.0165 47.0073C76.1531 46.7236 77.195 46.629 78.3316 46.629C80.6048 46.629 82.6886 47.1965 84.3935 48.2369C86.1932 49.2773 87.7086 50.7906 88.8453 52.7769C89.9819 54.7631 90.929 57.1276 91.5921 59.9651C92.2551 62.8026 92.5392 65.9238 92.5392 69.5179C92.5392 73.112 92.0657 76.3278 91.1185 79.2599C90.1713 82.1919 88.8453 84.7456 87.0456 86.7319C85.3407 88.8127 83.2569 90.4206 80.889 91.5556C78.521 92.6905 75.9636 93.258 73.1221 93.258C71.7961 93.258 70.47 93.1635 69.2387 93.0689C68.0074 92.9743 66.776 92.7851 65.5447 92.5014C64.3134 92.2176 63.082 91.8393 61.756 91.461C60.9983 91.1772 60.1458 90.8935 59.2933 90.5151C59.1986 90.5151 59.1986 90.6097 59.1039 90.6097C55.9782 92.9743 52.7578 94.8659 49.348 96.2847C48.3061 96.7576 47.1695 97.1359 46.1276 97.5142C48.0219 98.0817 49.9163 98.6492 51.9054 99.3113C53.9891 99.9734 56.1677 100.541 58.4409 101.108C60.7141 101.676 63.082 102.149 65.45 102.527C67.8179 102.905 70.3753 103.095 72.9327 103.095C77.6686 103.095 81.8361 102.243 85.6249 100.541C89.4136 98.8384 92.634 96.4738 95.2861 93.3526C97.9381 90.2314 100.022 86.4481 101.443 82.0973C102.863 77.7466 103.621 72.8283 103.621 67.3425C104 62.6134 103.432 58.3572 102.39 54.4793Z" fill="#F7BFBD"/>
<path d="M84.1093 80.6786H67.9126V77.8411C68.6703 77.2736 69.5228 76.6116 70.3753 75.9495C71.2277 75.1928 72.0802 74.4362 72.9326 73.5849C73.7851 72.7337 74.6376 71.8825 75.3953 71.0312C76.153 70.0854 76.9108 69.2342 77.4791 68.2883C78.0474 67.3425 78.6157 66.4913 78.8999 65.64C79.184 64.7888 79.4682 63.9376 79.4682 63.1809C79.4682 62.4243 79.3734 61.7622 79.0893 61.1947C78.8051 60.6272 78.4263 60.1543 77.9527 59.8705C77.4791 59.4922 77.0055 59.303 76.4372 59.1139C75.8689 58.9247 75.3006 58.9247 74.6376 58.9247C74.164 58.9247 73.5957 59.0193 73.0274 59.1139C72.459 59.303 71.9855 59.4922 71.4172 59.7759C70.8488 60.0597 70.3753 60.3434 69.9017 60.7218C69.4281 61.1001 68.9545 61.4784 68.6703 61.9513L67.9126 59.1139C68.2915 58.641 68.6703 58.168 69.2386 57.7897C69.807 57.4114 70.3753 57.0331 71.0383 56.7493C71.7013 56.4656 72.3643 56.1818 73.1221 56.0872C73.8798 55.8981 74.5428 55.8035 75.3006 55.8035C76.3425 55.8035 77.2896 55.9927 78.2368 56.2764C79.184 56.5602 79.9417 57.0331 80.6995 57.6951C81.3625 58.2626 81.9308 59.0193 82.4044 59.8705C82.7833 60.7218 83.0674 61.6676 83.0674 62.8026C83.0674 63.7484 82.878 64.6942 82.5938 65.64C82.215 66.5859 81.8361 67.5317 81.1731 68.4775C80.6048 69.4233 79.9417 70.3692 79.184 71.2204C78.4263 72.0716 77.6685 72.9229 76.9108 73.7741C76.153 74.6253 75.3953 75.2874 74.6376 76.0441C73.8798 76.7062 73.2168 77.3682 72.5538 77.8411H76.8161C77.6685 77.8411 78.4263 77.8411 79.184 77.8411C79.9417 77.8411 80.6048 77.8411 81.2678 77.8411C81.9308 77.8411 82.4991 77.8411 82.9727 77.7466C83.4463 77.7466 83.9199 77.652 84.204 77.652V80.6786H84.1093Z" fill="#F7BFBD"/>
</g>
<defs>
<clipPath id="clip0">
<rect width="104" height="103" fill="white"/>
</clipPath>
</defs>
</svg>
